# xmcd CD database file
#
# Track frame offsets:
#	150
#	12617
#	29127
#	42532
#	58297
#	71810
#	89502
#	101935
#	118570
#	135810
#
# Disc length: 2035 seconds
#
# Revision: 1
# Processed by: cddbd v1.5.2PL0 Copyright (c) Steve Scherf et al.
# Submitted via: cdripper 1,0,33,916
#
DISCID=9807f10a
DTITLE=Cherry River - Bound for Nashville
DYEAR=1997
DGENRE=Country
TTITLE0=Bound for Nashville
TTITLE1=One of these days
TTITLE2=Honky tonk lady
TTITLE3=I'm tired
TTITLE4=I'm stuck like glue
TTITLE5=Cowboys and sunset
TTITLE6=The gate
TTITLE7=Loving was what life was all about
TTITLE8=Another day
TTITLE9=The light
EXTD=YEAR: 1997
EXTT0=
EXTT1=
EXTT2=
EXTT3=
EXTT4=
EXTT5=
EXTT6=
EXTT7=
EXTT8=
EXTT9=
PLAYORDER=
